<?xml version="1.0" encoding="UTF-8"?>
<svg id="Ebene_2" data-name="Ebene 2" xmlns="http://www.w3.org/2000/svg" xmlns:xlink="http://www.w3.org/1999/xlink" viewBox="0 0 222.11 188.03">
  <defs>
    <style>
      .cls-1 {
        fill: #7ac943;
        font-family: Goldplay-SemiBold, Goldplay;
        font-size: 81.83px;
        font-weight: 600;
      }

      .cls-2 {
        fill: url(#Unbenannter_Verlauf_25);
      }

      .cls-3 {
        fill: url(#Unbenannter_Verlauf_6);
      }
    </style>
    <linearGradient id="Unbenannter_Verlauf_6" data-name="Unbenannter Verlauf 6" x1="-2.24" y1="98.4" x2="178.84" y2="98.4" gradientUnits="userSpaceOnUse">
      <stop offset="0" stop-color="#3fa9f5"/>
      <stop offset="1" stop-color="#7ac943"/>
    </linearGradient>
    <linearGradient id="Unbenannter_Verlauf_25" data-name="Unbenannter Verlauf 25" x1="193.26" y1="38.33" x2="223.68" y2="38.33" gradientTransform="translate(-65.63 -89.27) rotate(19.24)" gradientUnits="userSpaceOnUse">
      <stop offset="0" stop-color="#61bc8d"/>
      <stop offset=".21" stop-color="#64bd83"/>
      <stop offset=".57" stop-color="#6cc26a"/>
      <stop offset="1" stop-color="#7ac943"/>
    </linearGradient>
  </defs>
  <g id="Short_Logo" data-name="Short Logo">
    <path class="cls-3" d="m178.48,119.31c-4.47,17.35-14.08,33.24-27.27,45.22-13.17,12.03-29.99,19.84-47.52,22.49-17.54,2.66-35.81.04-51.81-7.5-16.02-7.48-29.68-19.77-38.82-34.81-2.26-3.77-4.32-7.67-6.01-11.73-1.68-4.06-3.14-8.22-4.22-12.47C.66,111.99-.29,103.18.08,94.43l.05-1.64.14-1.64c.1-1.09.16-2.18.29-3.27.29-2.17.55-4.34.99-6.49.35-2.16.93-4.28,1.42-6.41.62-2.1,1.18-4.21,1.94-6.27.67-2.08,1.54-4.09,2.35-6.12.92-1.98,1.79-3.99,2.84-5.9.97-1.96,2.12-3.82,3.22-5.7,1.19-1.83,2.35-3.68,3.66-5.42,10.23-14.14,24.65-25.15,40.95-31.21,8.14-3.04,16.72-4.88,25.37-5.4,8.65-.6,17.37.15,25.8,2.09l-.87,3.88c-8.08-1.72-16.4-2.29-24.62-1.59-8.22.63-16.32,2.52-23.96,5.52-15.31,5.98-28.7,16.59-38.06,30-9.41,13.37-14.68,29.51-15.01,45.77-.43,16.26,4.05,32.54,12.73,46.18,8.62,13.67,21.32,24.68,35.99,31.23,14.64,6.61,31.22,8.68,46.99,6.01,15.73-2.66,30.66-9.91,42.22-20.84,11.59-10.89,19.85-25.14,23.54-40.49l10.42,2.56Z"/>
    <text class="cls-1" transform="translate(54.92 119.93)"><tspan x="0" y="0">EUD</tspan></text>
    <g id="g4">
      <g id="path6">
        <path class="cls-2" d="m133.41,18.41c-.88.61-2.59.68-5.15.21l-6.16-1.12-9.8,9.95-.08.08c-.14.1-.29.13-.44.1l-1.64-.3c-.15-.03-.28-.11-.38-.25-.15-.21-.16-.42-.03-.63l5.83-10.14-6.29-1.14c-1.93,2.34-2.96,3.56-3.1,3.66s-.29.13-.44.1l-1.64-.3c-.15-.03-.28-.11-.38-.25-.13-.18-.14-.38-.05-.59l2.61-5.26-.6-5.85c-.03-.23.05-.42.25-.55.14-.1.29-.13.44-.1l1.66.29c.15.03.28.11.38.25s.64,1.65,1.62,4.52l6.29,1.14-1.9-11.54c-.05-.24.04-.43.25-.57.14-.1.29-.13.44-.1l1.64.3c.15.03.28.11.38.25.03.04.04.07.05.1l5.69,12.76,6.16,1.12c2.55.46,4.13,1.13,4.74,2.01.22.32.31.66.24,1.01s-.26.63-.58.86Z"/>
      </g>
    </g>
  </g>
</svg>